<?xml version="1.0" encoding="UTF-8"?>
<!-- Generator: Adobe Illustrator 26.0.1, SVG Export Plug-In . SVG Version: 6.00 Build 0)  -->
<svg xmlns="http://www.w3.org/2000/svg" xmlns:xlink="http://www.w3.org/1999/xlink" version="1.1" id="Capa_1" x="0px" y="0px" viewBox="0 0 511.96 511.96" style="enable-background:new 0 0 511.96 511.96;" xml:space="preserve" width="512" height="512">
<g id="Layer_2_10_">
	<g id="Surfaces_11_">
		<g id="_3D_Substance_Surface_00000067213245072356212660000002926126609348119210_">
			<g id="Outline_no_shadow_11_">
				<polygon points="190.56,173.73 217.69,262.68 163.43,262.68     "/>
				<path d="M421.3,6.4H90.66C40.59,6.4,0,46.99,0,97.06V414.9c0,50.07,40.59,90.66,90.66,90.66H421.3      c50.07,0,90.66-40.59,90.66-90.66V97.06C511.96,46.99,471.37,6.4,421.3,6.4z M296,358.37h-44.65c-1.59,0.18-3.06-0.85-3.44-2.4      l-17.51-50.93h-79.33l-16.15,50.24c-0.45,1.89-2.18,3.18-4.12,3.09H90.62c-2.29,0-3.09-1.26-2.4-3.78l68.68-197      c0.69-2.06,1.38-4.07,2.07-6.71c0.89-4.58,1.35-9.24,1.37-13.91c-0.17-1.16,0.64-2.24,1.8-2.4c0.2-0.03,0.4-0.03,0.6,0h54.61      c1.6,0,2.51,0.57,2.75,1.72l77.96,218.65C298.74,357.23,298.06,358.37,296,358.37z M422.19,188.16v41.55      c0,1.61-1.15,2.41-3.44,2.41c-7.13-0.49-14.29,0.03-21.27,1.54c-6.15,1.22-12.14,3.12-17.86,5.67      c-4.93,2.29-10.15,4.93-12.89,7.9v108.05c0,2.06-0.92,3.09-2.75,3.09h-40.17c-1.66,0.24-3.19-0.91-3.43-2.57      c-0.04-0.29-0.04-0.58,0-0.86V237.61c0-5.03-0.06-10.35-0.17-15.97c-0.12-5.61-0.29-11.16-0.52-16.65      c-0.16-4.98-0.61-9.94-1.37-14.87c-0.28-1.05,0.36-2.13,1.42-2.4c0.32-0.08,0.66-0.08,0.98,0h37.44      c2.08,0.02,3.91,1.42,4.46,3.43c0.8,1.79,1.38,3.67,1.72,5.59c0.48,2.21,0.82,4.45,1.03,6.7c0.22,2.4,0.34,4.98,0.34,7.73      c6.42-7.48,14.16-13.71,22.84-18.38c9.31-5.26,19.86-7.93,30.55-7.72c1.49-0.22,2.87,0.82,3.09,2.31      C422.22,187.64,422.22,187.9,422.19,188.16z"/>
			</g>
		</g>
	</g>
</g>















</svg>
