<?xml version="1.0" encoding="UTF-8"?>
<!-- Generator: Adobe Illustrator 26.0.1, SVG Export Plug-In . SVG Version: 6.00 Build 0)  -->
<svg xmlns="http://www.w3.org/2000/svg" xmlns:xlink="http://www.w3.org/1999/xlink" version="1.1" id="Capa_1" x="0px" y="0px" viewBox="0 0 512 512" style="enable-background:new 0 0 512 512;" xml:space="preserve" width="512" height="512">
<g id="Layer_2_00000012444315760253497670000016708113870020974252_">
	<g id="Surfaces_00000083785640516064199570000010109223220607276941_">
		<g id="Photo_Surface_3_">
			<g id="Outline_no_shadow_00000088104439256256445230000015830809593780030595_">
				<path d="M421.33,6.4H90.67C40.53,6.4,0,46.93,0,97.07v317.86c0,50.14,40.53,90.67,90.67,90.67h330.66      c50.14,0,90.67-40.53,90.67-90.67V97.07C512,46.93,471.47,6.4,421.33,6.4z M278.4,318.93l-6.19,37.12      c0,1.07-0.64,1.92-1.28,2.56c-0.64,0.43-1.28,0.64-2.13,0.64H133.55c-2.35,0-3.42-1.28-3.42-3.84V137.39      c-0.21-1.5,0.86-2.78,2.35-2.99h42.67c1.06-0.21,2.34,0.64,2.34,1.71v179.84h98.56C278.19,315.95,278.83,317.01,278.4,318.93z       M405.55,229.97c0,1.71-1.07,2.35-3.42,2.35c-13.86-0.85-27.73,1.71-40.32,7.25c-4.26,1.92-8.32,4.48-11.52,7.9v108.8      c0,2.13-0.85,2.98-2.77,2.98h-41.6c-1.71,0.22-3.2-0.85-3.41-2.56V237.65c0-5.12,0-10.45-0.22-16      c-0.21-5.54-0.21-11.09-0.42-16.64c-0.22-4.69-0.64-9.38-1.28-14.08c-0.22-1.06,0.42-2.13,1.49-2.34c0.21-0.22,0.43-0.22,0.85,0      h37.34c2.13,0,3.84,1.49,4.48,3.41c0.85,1.49,1.49,3.2,1.7,4.91c0.43,2.13,0.86,4.48,1.07,6.61c0.21,2.35,0.43,4.91,0.43,7.68      c6.4-7.47,14.08-13.65,22.82-18.35c9.82-5.33,20.7-7.89,31.79-7.68c1.49-0.21,2.77,0.86,2.99,2.35V229.97z"/>
			</g>
		</g>
	</g>
</g>















</svg>
